<?xml version="1.0" encoding="UTF-8" standalone="no"?>
<!-- Created with Inkscape (http://www.inkscape.org/) -->
<svg
   xmlns:dc="http://purl.org/dc/elements/1.1/"
   xmlns:cc="http://creativecommons.org/ns#"
   xmlns:rdf="http://www.w3.org/1999/02/22-rdf-syntax-ns#"
   xmlns:svg="http://www.w3.org/2000/svg"
   xmlns="http://www.w3.org/2000/svg"
   xmlns:sodipodi="http://sodipodi.sourceforge.net/DTD/sodipodi-0.dtd"
   xmlns:inkscape="http://www.inkscape.org/namespaces/inkscape"
   width="600"
   height="600"
   id="svg2"
   sodipodi:version="0.32"
   inkscape:version="0.46"
   sodipodi:docname="board.svg"
   inkscape:output_extension="org.inkscape.output.svg.inkscape"
   version="1.0">
  <defs
     id="defs4">
    <inkscape:perspective
       sodipodi:type="inkscape:persp3d"
       inkscape:vp_x="0 : 526.18109 : 1"
       inkscape:vp_y="0 : 1000 : 0"
       inkscape:vp_z="744.09448 : 526.18109 : 1"
       inkscape:persp3d-origin="372.04724 : 350.78739 : 1"
       id="perspective10" />
  </defs>
  <sodipodi:namedview
     id="base"
     pagecolor="#ffffff"
     bordercolor="#666666"
     borderopacity="1.0"
     inkscape:pageopacity="1"
     inkscape:pageshadow="2"
     inkscape:zoom="1.4"
     inkscape:cx="217.95586"
     inkscape:cy="260.16714"
     inkscape:document-units="px"
     inkscape:current-layer="layer1"
     showgrid="false"
     inkscape:window-width="866"
     inkscape:window-height="726"
     inkscape:window-x="1769"
     inkscape:window-y="263" />
  <metadata
     id="metadata7">
    <rdf:RDF>
      <cc:Work
         rdf:about="">
        <dc:format>image/svg+xml</dc:format>
        <dc:type
           rdf:resource="http://purl.org/dc/dcmitype/StillImage" />
      </cc:Work>
    </rdf:RDF>
  </metadata>
  <g
     inkscape:label="Calque 1"
     inkscape:groupmode="layer"
     id="layer1">
    <g
       id="g2743"
       transform="matrix(2.6666667,0,0,2.6666667,-251.41667,-705.33334)">
      <path
         id="path5923"
         d="M 94.28125,264.5 L 94.28125,339.5 L 109.28125,339.5 L 109.28125,324.5 L 124.28125,324.5 L 124.28125,309.5 L 139.28125,309.5 L 139.28125,294.5 L 154.28125,294.5 L 154.28125,279.5 L 169.28125,279.5 L 169.28125,264.5 L 94.28125,264.5 z"
         style="fill:#999999;fill-opacity:1;stroke:none" />
      <path
         id="path5919"
         d="M 244.28125,279.5 L 259.28125,279.5 L 259.28125,294.5 L 274.28125,294.5 L 274.28125,309.5 L 289.28125,309.5 L 289.28125,324.5 L 304.28125,324.5 L 304.28125,339.5 L 319.28125,339.5 L 319.28125,264.5 L 244.28125,264.5 L 244.28125,279.5 z"
         style="fill:#999999;fill-opacity:1;stroke:none" />
      <path
         id="path5917"
         d="M 304.28125,414.5 L 304.28125,429.5 L 289.28125,429.5 L 289.28125,444.5 L 274.28125,444.5 L 274.28125,459.5 L 259.28125,459.5 L 259.28125,474.5 L 244.28125,474.5 L 244.28125,489.5 L 319.28125,489.5 L 319.28125,414.5 L 304.28125,414.5 z"
         style="fill:#999999;fill-opacity:1;stroke:none" />
      <path
         id="rect5531"
         d="M 169.28125,474.5 L 154.28125,474.5 L 154.28125,459.5 L 139.28125,459.5 L 139.28125,444.5 L 124.28125,444.5 L 124.28125,429.5 L 109.28125,429.5 L 109.28125,414.5 L 94.28125,414.5 L 94.28125,489.5 L 169.28125,489.5 L 169.28125,474.5 z"
         style="fill:#999999;fill-opacity:1;stroke:none" />
      <path
         id="use4645"
         d="M 169.28125,264.5 L 169.28125,279.5 L 184.28125,279.5 L 184.28125,264.5 L 169.28125,264.5 z M 184.28125,279.5 L 184.28125,294.5 L 199.28125,294.5 L 199.28125,279.5 L 184.28125,279.5 z M 199.28125,279.5 L 214.28125,279.5 L 214.28125,264.5 L 199.28125,264.5 L 199.28125,279.5 z M 214.28125,279.5 L 214.28125,294.5 L 229.28125,294.5 L 229.28125,279.5 L 214.28125,279.5 z M 229.28125,279.5 L 244.28125,279.5 L 244.28125,264.5 L 229.28125,264.5 L 229.28125,279.5 z M 244.28125,279.5 L 244.28125,294.5 L 259.28125,294.5 L 259.28125,279.5 L 244.28125,279.5 z M 259.28125,294.5 L 259.28125,309.5 L 274.28125,309.5 L 274.28125,294.5 L 259.28125,294.5 z M 274.28125,309.5 L 274.28125,324.5 L 289.28125,324.5 L 289.28125,309.5 L 274.28125,309.5 z M 289.28125,324.5 L 289.28125,339.5 L 304.28125,339.5 L 304.28125,324.5 L 289.28125,324.5 z M 304.28125,339.5 L 304.28125,354.5 L 319.28125,354.5 L 319.28125,339.5 L 304.28125,339.5 z M 304.28125,354.5 L 289.28125,354.5 L 289.28125,369.5 L 304.28125,369.5 L 304.28125,354.5 z M 304.28125,369.5 L 304.28125,384.5 L 319.28125,384.5 L 319.28125,369.5 L 304.28125,369.5 z M 304.28125,384.5 L 289.28125,384.5 L 289.28125,399.5 L 304.28125,399.5 L 304.28125,384.5 z M 304.28125,399.5 L 304.28125,414.5 L 319.28125,414.5 L 319.28125,399.5 L 304.28125,399.5 z M 304.28125,414.5 L 289.28125,414.5 L 289.28125,429.5 L 304.28125,429.5 L 304.28125,414.5 z M 289.28125,429.5 L 274.28125,429.5 L 274.28125,444.5 L 289.28125,444.5 L 289.28125,429.5 z M 274.28125,444.5 L 259.28125,444.5 L 259.28125,459.5 L 274.28125,459.5 L 274.28125,444.5 z M 259.28125,459.5 L 244.28125,459.5 L 244.28125,474.5 L 259.28125,474.5 L 259.28125,459.5 z M 244.28125,474.5 L 229.28125,474.5 L 229.28125,489.5 L 244.28125,489.5 L 244.28125,474.5 z M 229.28125,474.5 L 229.28125,459.5 L 214.28125,459.5 L 214.28125,474.5 L 229.28125,474.5 z M 214.28125,474.5 L 199.28125,474.5 L 199.28125,489.5 L 214.28125,489.5 L 214.28125,474.5 z M 199.28125,474.5 L 199.28125,459.5 L 184.28125,459.5 L 184.28125,474.5 L 199.28125,474.5 z M 184.28125,474.5 L 169.28125,474.5 L 169.28125,489.5 L 184.28125,489.5 L 184.28125,474.5 z M 169.28125,474.5 L 169.28125,459.5 L 154.28125,459.5 L 154.28125,474.5 L 169.28125,474.5 z M 154.28125,459.5 L 154.28125,444.5 L 139.28125,444.5 L 139.28125,459.5 L 154.28125,459.5 z M 139.28125,444.5 L 139.28125,429.5 L 124.28125,429.5 L 124.28125,444.5 L 139.28125,444.5 z M 124.28125,429.5 L 124.28125,414.5 L 109.28125,414.5 L 109.28125,429.5 L 124.28125,429.5 z M 109.28125,414.5 L 109.28125,399.5 L 94.28125,399.5 L 94.28125,414.5 L 109.28125,414.5 z M 109.28125,399.5 L 124.28125,399.5 L 124.28125,384.5 L 109.28125,384.5 L 109.28125,399.5 z M 109.28125,384.5 L 109.28125,369.5 L 94.28125,369.5 L 94.28125,384.5 L 109.28125,384.5 z M 109.28125,369.5 L 124.28125,369.5 L 124.28125,354.5 L 109.28125,354.5 L 109.28125,369.5 z M 109.28125,354.5 L 109.28125,339.5 L 94.28125,339.5 L 94.28125,354.5 L 109.28125,354.5 z M 109.28125,339.5 L 124.28125,339.5 L 124.28125,324.5 L 109.28125,324.5 L 109.28125,339.5 z M 124.28125,324.5 L 139.28125,324.5 L 139.28125,309.5 L 124.28125,309.5 L 124.28125,324.5 z M 139.28125,309.5 L 154.28125,309.5 L 154.28125,294.5 L 139.28125,294.5 L 139.28125,309.5 z M 154.28125,294.5 L 169.28125,294.5 L 169.28125,279.5 L 154.28125,279.5 L 154.28125,294.5 z M 169.28125,294.5 L 169.28125,309.5 L 184.28125,309.5 L 184.28125,294.5 L 169.28125,294.5 z M 184.28125,309.5 L 184.28125,324.5 L 199.28125,324.5 L 199.28125,309.5 L 184.28125,309.5 z M 199.28125,309.5 L 214.28125,309.5 L 214.28125,294.5 L 199.28125,294.5 L 199.28125,309.5 z M 214.28125,309.5 L 214.28125,324.5 L 229.28125,324.5 L 229.28125,309.5 L 214.28125,309.5 z M 229.28125,309.5 L 244.28125,309.5 L 244.28125,294.5 L 229.28125,294.5 L 229.28125,309.5 z M 244.28125,309.5 L 244.28125,324.5 L 259.28125,324.5 L 259.28125,309.5 L 244.28125,309.5 z M 259.28125,324.5 L 259.28125,339.5 L 274.28125,339.5 L 274.28125,324.5 L 259.28125,324.5 z M 274.28125,339.5 L 274.28125,354.5 L 289.28125,354.5 L 289.28125,339.5 L 274.28125,339.5 z M 274.28125,354.5 L 259.28125,354.5 L 259.28125,369.5 L 274.28125,369.5 L 274.28125,354.5 z M 274.28125,369.5 L 274.28125,384.5 L 289.28125,384.5 L 289.28125,369.5 L 274.28125,369.5 z M 274.28125,384.5 L 259.28125,384.5 L 259.28125,399.5 L 274.28125,399.5 L 274.28125,384.5 z M 274.28125,399.5 L 274.28125,414.5 L 289.28125,414.5 L 289.28125,399.5 L 274.28125,399.5 z M 274.28125,414.5 L 259.28125,414.5 L 259.28125,429.5 L 274.28125,429.5 L 274.28125,414.5 z M 259.28125,429.5 L 244.28125,429.5 L 244.28125,444.5 L 259.28125,444.5 L 259.28125,429.5 z M 244.28125,444.5 L 229.28125,444.5 L 229.28125,459.5 L 244.28125,459.5 L 244.28125,444.5 z M 229.28125,444.5 L 229.28125,429.5 L 214.28125,429.5 L 214.28125,444.5 L 229.28125,444.5 z M 214.28125,444.5 L 199.28125,444.5 L 199.28125,459.5 L 214.28125,459.5 L 214.28125,444.5 z M 199.28125,444.5 L 199.28125,429.5 L 184.28125,429.5 L 184.28125,444.5 L 199.28125,444.5 z M 184.28125,444.5 L 169.28125,444.5 L 169.28125,459.5 L 184.28125,459.5 L 184.28125,444.5 z M 169.28125,444.5 L 169.28125,429.5 L 154.28125,429.5 L 154.28125,444.5 L 169.28125,444.5 z M 154.28125,429.5 L 154.28125,414.5 L 139.28125,414.5 L 139.28125,429.5 L 154.28125,429.5 z M 139.28125,414.5 L 139.28125,399.5 L 124.28125,399.5 L 124.28125,414.5 L 139.28125,414.5 z M 139.28125,399.5 L 154.28125,399.5 L 154.28125,384.5 L 139.28125,384.5 L 139.28125,399.5 z M 139.28125,384.5 L 139.28125,369.5 L 124.28125,369.5 L 124.28125,384.5 L 139.28125,384.5 z M 139.28125,369.5 L 154.28125,369.5 L 154.28125,354.5 L 139.28125,354.5 L 139.28125,369.5 z M 139.28125,354.5 L 139.28125,339.5 L 124.28125,339.5 L 124.28125,354.5 L 139.28125,354.5 z M 139.28125,339.5 L 154.28125,339.5 L 154.28125,324.5 L 139.28125,324.5 L 139.28125,339.5 z M 154.28125,324.5 L 169.28125,324.5 L 169.28125,309.5 L 154.28125,309.5 L 154.28125,324.5 z M 169.28125,324.5 L 169.28125,339.5 L 184.28125,339.5 L 184.28125,324.5 L 169.28125,324.5 z M 184.28125,339.5 L 184.28125,354.5 L 199.28125,354.5 L 199.28125,339.5 L 184.28125,339.5 z M 199.28125,339.5 L 214.28125,339.5 L 214.28125,324.5 L 199.28125,324.5 L 199.28125,339.5 z M 214.28125,339.5 L 214.28125,354.5 L 229.28125,354.5 L 229.28125,339.5 L 214.28125,339.5 z M 229.28125,339.5 L 244.28125,339.5 L 244.28125,324.5 L 229.28125,324.5 L 229.28125,339.5 z M 244.28125,339.5 L 244.28125,354.5 L 259.28125,354.5 L 259.28125,339.5 L 244.28125,339.5 z M 244.28125,354.5 L 229.28125,354.5 L 229.28125,369.5 L 244.28125,369.5 L 244.28125,354.5 z M 244.28125,369.5 L 244.28125,384.5 L 259.28125,384.5 L 259.28125,369.5 L 244.28125,369.5 z M 244.28125,384.5 L 229.28125,384.5 L 229.28125,399.5 L 244.28125,399.5 L 244.28125,384.5 z M 244.28125,399.5 L 244.28125,414.5 L 259.28125,414.5 L 259.28125,399.5 L 244.28125,399.5 z M 244.28125,414.5 L 229.28125,414.5 L 229.28125,429.5 L 244.28125,429.5 L 244.28125,414.5 z M 229.28125,414.5 L 229.28125,399.5 L 214.28125,399.5 L 214.28125,414.5 L 229.28125,414.5 z M 214.28125,414.5 L 199.28125,414.5 L 199.28125,429.5 L 214.28125,429.5 L 214.28125,414.5 z M 199.28125,414.5 L 199.28125,399.5 L 184.28125,399.5 L 184.28125,414.5 L 199.28125,414.5 z M 184.28125,414.5 L 169.28125,414.5 L 169.28125,429.5 L 184.28125,429.5 L 184.28125,414.5 z M 169.28125,414.5 L 169.28125,399.5 L 154.28125,399.5 L 154.28125,414.5 L 169.28125,414.5 z M 169.28125,399.5 L 184.28125,399.5 L 184.28125,384.5 L 169.28125,384.5 L 169.28125,399.5 z M 169.28125,384.5 L 169.28125,369.5 L 154.28125,369.5 L 154.28125,384.5 L 169.28125,384.5 z M 169.28125,369.5 L 184.28125,369.5 L 184.28125,354.5 L 169.28125,354.5 L 169.28125,369.5 z M 169.28125,354.5 L 169.28125,339.5 L 154.28125,339.5 L 154.28125,354.5 L 169.28125,354.5 z M 184.28125,369.5 L 184.28125,384.5 L 199.28125,384.5 L 199.28125,369.5 L 184.28125,369.5 z M 199.28125,369.5 L 214.28125,369.5 L 214.28125,354.5 L 199.28125,354.5 L 199.28125,369.5 z M 214.28125,369.5 L 214.28125,384.5 L 229.28125,384.5 L 229.28125,369.5 L 214.28125,369.5 z M 214.28125,384.5 L 199.28125,384.5 L 199.28125,399.5 L 214.28125,399.5 L 214.28125,384.5 z"
         style="fill:#000000;fill-opacity:1;stroke:none" />
    </g>
  </g>
</svg>
